<svg width="16" height="16" viewBox="0 0 16 16" fill="#000000"><path d="M4.92,5.33c0-.55,.45-1,1-1s1,.45,1,1-.45,1-1,1-1-.45-1-1Zm9.24-1.33V12c0,1.47-1.2,2.67-2.67,2.67H4.5c-1.47,0-2.67-1.2-2.67-2.67V4c0-1.47,1.2-2.67,2.67-2.67h7c1.47,0,2.67,1.2,2.67,2.67ZM3.17,12c0,.21,.06,.4,.14,.57l4.85-5.36c.82-.88,1.98-.87,2.79,0l1.89,2.09V4c0-.74-.6-1.33-1.33-1.33H4.5c-.74,0-1.33,.6-1.33,1.33V12Zm9.67,0v-.72l-2.87-3.17c-.09-.1-.25-.23-.41-.23s-.32,.13-.42,.24l-4.7,5.2s.05,.01,.07,.01h7c.74,0,1.33-.6,1.33-1.33Z"/></svg>
