<svg xmlns="http://www.w3.org/2000/svg" width="16" height="16" viewBox="0 0 16 16" fill="#00000069"><path d="M14.17,6c0,.37-.3,.67-.67,.67h-1.83v6.83c0,.37-.3,.67-.67,.67s-.67-.3-.67-.67V6.67h-1.83c-.37,0-.67-.3-.67-.67s.3-.67,.67-.67h1.83V2.5c0-.37,.3-.67,.67-.67s.67,.3,.67,.67v2.83h1.83c.37,0,.67,.3,.67,.67Zm-6.67,3.33h-1.83V2.5c0-.37-.3-.67-.67-.67s-.67,.3-.67,.67v6.83h-1.83c-.37,0-.67,.3-.67,.67s.3,.67,.67,.67h1.83v2.83c0,.37,.3,.67,.67,.67s.67-.3,.67-.67v-2.83h1.83c.37,0,.67-.3,.67-.67s-.3-.67-.67-.67Z"/></svg>
