<svg xmlns="http://www.w3.org/2000/svg" width="16" height="16" viewBox="0 0 16 16" fill="#ffffff86"><path shape-rendering="geometricPrecision" d="M10.2,9.18c.24,.28,.2,.7-.08,.94-.55,.47-1.23,.7-1.9,.7-.76,0-1.51-.29-2.08-.86-1.09-1.1-1.09-2.82,0-3.92,1.07-1.08,2.82-1.15,3.98-.16,.28,.24,.31,.66,.08,.94-.24,.28-.66,.31-.94,.08-.63-.54-1.59-.5-2.18,.09-.57,.57-.57,1.47,0,2.04,.59,.59,1.54,.62,2.18,.09,.28-.24,.7-.2,.94,.08Zm4.61-1.18c0,3.81-3.06,6.92-6.82,6.92S1.18,11.81,1.18,8,4.24,1.08,8,1.08s6.82,3.1,6.82,6.92Zm-1.33,0c0-3.08-2.46-5.58-5.48-5.58S2.52,4.92,2.52,8s2.46,5.58,5.48,5.58,5.48-2.5,5.48-5.58Z"/></svg>
