<svg xmlns="http://www.w3.org/2000/svg" width="16" height="16" viewBox="0 0 16 16" fill="#00000069"><path d="M2.67,6.5c0-.37,.3-.67,.67-.67h5.3c.37,0,.67,.3,.67,.67s-.3,.67-.67,.67H3.33c-.37,0-.67-.3-.67-.67Zm.67-2.33H12.67c.37,0,.67-.3,.67-.67s-.3-.67-.67-.67H3.33c-.37,0-.67,.3-.67,.67s.3,.67,.67,.67Zm9.33,4.67H3.33c-.37,0-.67,.3-.67,.67s.3,.67,.67,.67H12.67c.37,0,.67-.3,.67-.67s-.3-.67-.67-.67Zm-4.03,3H3.33c-.37,0-.67,.3-.67,.67s.3,.67,.67,.67h5.3c.37,0,.67-.3,.67-.67s-.3-.67-.67-.67Z"/></svg>
