<svg xmlns="http://www.w3.org/2000/svg" width="16" height="16" viewBox="0 0 16 16" fill="#ffffff86"><path shape-rendering="geometricPrecision" d="M8.67,8.05v2.8c0,.37-.3,.67-.67,.67s-.67-.3-.67-.67v-2.8c0-.37,.3-.67,.67-.67s.67,.3,.67,.67Zm-.77-3.75c-.58,0-1.05,.45-1.05,1s.47,1,1.05,1,1.05-.45,1.05-1-.47-1-1.05-1Zm6.72,3.7c0,5.04-.96,6.72-6.62,6.72S1.38,13.04,1.38,8,2.34,1.28,8,1.28s6.62,1.68,6.62,6.72Zm-1.33,0c0-4.43-.46-5.38-5.28-5.38S2.72,3.57,2.72,8s.46,5.38,5.28,5.38,5.28-.95,5.28-5.38Z"/></svg>
