<svg xmlns="http://www.w3.org/2000/svg" width="16" height="16" viewBox="0 0 16 16" fill="#00000069"><path d="M14.47,7.7v.6c0,.37-.3,.67-.67,.67-.62,0-1.13,.51-1.13,1.13v2.23c0,.92-.75,1.67-1.67,1.67h-1.2c-.37,0-.67-.3-.67-.67s.3-.67,.67-.67h1.2c.18,0,.33-.15,.33-.33v-2.23c0-.89,.47-1.67,1.17-2.1-.7-.43-1.17-1.21-1.17-2.1V3.67c0-.18-.15-.33-.33-.33h-1.2c-.37,0-.67-.3-.67-.67s.3-.67,.67-.67h1.2c.92,0,1.67,.75,1.67,1.67v2.23c0,.62,.51,1.13,1.13,1.13,.37,0,.67,.3,.67,.67Zm-9.8-1.8V3.67c0-.18,.15-.33,.33-.33h1.2c.37,0,.67-.3,.67-.67s-.3-.67-.67-.67h-1.2c-.92,0-1.67,.75-1.67,1.67v2.23c0,.62-.51,1.13-1.13,1.13-.37,0-.67,.3-.67,.67v.6c0,.37,.3,.67,.67,.67,.62,0,1.13,.51,1.13,1.13v2.23c0,.92,.75,1.67,1.67,1.67h1.2c.37,0,.67-.3,.67-.67s-.3-.67-.67-.67h-1.2c-.18,0-.33-.15-.33-.33v-2.23c0-.89-.47-1.67-1.17-2.1,.7-.43,1.17-1.21,1.17-2.1Z"/></svg>
