<svg xmlns="http://www.w3.org/2000/svg" width="16" height="16" viewBox="0 0 16 16" fill="#00000069"><path d="M12.67,9.33h-2.14l.29-2.67h1.85c.37,0,.67-.3,.67-.67s-.3-.67-.67-.67h-1.7l.28-2.59c.04-.37-.22-.7-.59-.74-.37-.05-.7,.22-.74,.59l-.3,2.74h-2.66l.28-2.59c.04-.37-.22-.7-.59-.74-.37-.05-.7,.22-.74,.59l-.3,2.74H3.33c-.37,0-.67,.3-.67,.67s.3,.67,.67,.67h2.14l-.29,2.67h-1.85c-.37,0-.67,.3-.67,.67s.3,.67,.67,.67h1.7l-.28,2.59c-.04,.37,.22,.7,.59,.74,.02,0,.05,0,.07,0,.34,0,.62-.25,.66-.59l.3-2.74h2.66l-.28,2.59c-.04,.37,.22,.7,.59,.74,.02,0,.05,0,.07,0,.34,0,.62-.25,.66-.59l.3-2.74h2.29c.37,0,.67-.3,.67-.67s-.3-.67-.67-.67Zm-6.14,0l.29-2.67h2.66l-.29,2.67h-2.66Z"/></svg>
