<svg xmlns="http://www.w3.org/2000/svg" width="16" height="16" viewBox="0 0 16 16" fill="#ffffff86"><path shape-rendering="geometricPrecision" d="M10.47,6.19c.26,.26,.26,.68,0,.94l-2.67,2.67c-.13,.12-.29,.2-.47,.2s-.35-.07-.47-.2l-1.33-1.33c-.26-.26-.26-.68,0-.94,.26-.26,.68-.26,.94,0l.86,.86,2.19-2.2c.26-.26,.68-.26,.94,0Zm-2.29,8.45c-.06,.02-.12,.03-.18,.03s-.12,0-.18-.03c-.08-.02-7.81-2.35-6.01-10.78,.07-.33,.39-.57,.72-.52,.03,0,3.16,.31,4.97-1.77,.25-.29,.75-.29,1.01,0,1.81,2.08,4.94,1.78,4.97,1.77,.34-.04,.65,.19,.72,.52,1.8,8.43-5.93,10.76-6.01,10.78ZM13,4.69c-1.06,0-3.29-.2-5-1.74-1.7,1.53-3.91,1.74-4.98,1.74h-.01c-1.01,6.17,3.94,8.24,5,8.61,1.06-.37,6.01-2.44,5-8.61Z"/></svg>
